#!OML:ASF H:\Terrain\Patient Classification 1\Walking\liu\liu.ASF
:FULLY-SPECIFIED
:DEGREES
421
root 10.092300 16.754400 23.371500 8.164130 0.340079 -4.727430
lowerback -9.651566 3.039454 1.346851
upperback -1.979406 3.839143 2.390377
thorax 3.280376 1.915903 2.145396
lowerneck -21.435480 -7.652491 -16.135241
upperneck 24.115742 -9.904884 15.705471
head 12.953711 -4.018817 6.978873
rclavicle -0.000000 -0.000000
rhumerus -39.798882 11.092180 -97.544487
rradius 36.334541
rwrist -15.513190
rhand -31.943121 -27.075071
rfingers 7.837522
rthumb -2.628560 -60.038002
lclavicle -0.000000 -0.000000
lhumerus -56.132339 -7.866760 101.837448
lradius 24.697420
lwrist 0.973080
lhand -7.905953 -24.797190
lfingers 7.837522
lthumb 20.559771 7.237065
rfemur 27.346331 3.330272 31.151560
rtibia 0.000000
rfoot 10.359811 4.301561
rtoes -24.538252
lfemur -48.542454 2.713733 -20.535131
ltibia 37.898739
lfoot 1.242109 8.557627
ltoes 2.112935
422
root 10.122300 16.775900 23.530899 8.124530 0.487934 -4.674200
lowerback -9.556184 2.903439 1.417240
upperback -2.080023 3.658831 2.329789
thorax 3.134978 1.827386 2.014738
lowerneck -21.698492 -7.785415 -16.058130
upperneck 24.534182 -10.084207 15.527711
head 13.182730 -4.102923 6.878608
rclavicle -0.000000 -0.000000
rhumerus -40.544682 11.016500 -97.898682
rradius 35.850651
rwrist -15.860460
rhand -31.423370 -28.403431
rfingers 7.837522
rthumb -2.126597 -61.371532
lclavicle -0.000000 -0.000000
lhumerus -55.507874 -7.162980 101.068993
lradius 24.080872
lwrist -0.252799
lhand -8.195518 -25.158430
lfingers 7.837522
lthumb 20.281250 6.902379
rfemur 24.421980 3.061146 30.805611
rtibia 6.355173
rfoot 10.539518 4.441723
rtoes -21.301720
lfemur -48.170319 2.337544 -20.589470
ltibia 38.555000
lfoot 0.262472 8.485213
ltoes 2.042876
423
root 10.158700 16.818800 23.700100 8.035590 0.462645 -4.109360
lowerback -9.272471 2.756468 0.890435
upperback -2.324927 3.526501 2.205346
thorax 2.705417 1.761111 2.142954
lowerneck -20.916170 -7.410843 -15.921840
upperneck 24.373911 -9.622195 15.332021
head 12.865050 -3.935591 6.858929
rclavicle -0.000000 -0.000000
rhumerus -41.555691 10.712779 -97.931900
rradius 35.528793
rwrist -15.293960
rhand -29.902620 -31.704309
rfingers 7.837522
rthumb -0.657832 -64.681099
lclavicle -0.000000 -0.000000
lhumerus -55.124302 -5.859315 100.060181
lradius 23.579161
lwrist -1.965106
lhand -7.293770 -24.621521
lfingers 7.837522
lthumb 21.148600 7.355084
rfemur 21.461330 2.942852 29.552931
rtibia 12.740200
rfoot 11.516780 3.478123
rtoes -8.530435
lfemur -47.392624 1.975160 -21.285221
ltibia 38.798542
lfoot -0.582589 8.379998
ltoes 3.776762
424
root 10.196200 16.849501 23.863701 7.882440 0.264051 -3.143260
lowerback -8.050505 2.844292 0.092244
upperback -3.269838 3.752045 1.817981
thorax 1.025738 1.886478 2.115377
lowerneck -19.568340 -7.251618 -16.219721
upperneck 24.504921 -9.537770 15.447301
head 12.653630 -3.961815 6.988432
rclavicle -0.000000 -0.000000
rhumerus -43.824883 9.667350 -97.944885
rradius 35.461361
rwrist -14.464670
rhand -28.688551 -34.838982
rfingers 7.837522
rthumb 0.514841 -67.816101
lclavicle -0.000000 -0.000000
lhumerus -55.870102 -5.631593 99.664841
lradius 23.214729
lwrist -2.777797
lhand -5.947799 -23.737339
lfingers 7.837522
lthumb 22.442421 8.105680
rfemur 19.199289 1.610180 27.716921
rtibia 17.757080
rfoot 12.536591 5.467803
rtoes -15.242480
lfemur -46.385242 1.647008 -22.473442
ltibia 38.781494
lfoot -1.292478 8.551819
ltoes 4.432703
425
root 10.230400 16.878201 24.027201 7.852980 -0.008902 -2.616020
lowerback -8.261671 2.935856 -0.246968
upperback -3.251765 3.897795 1.610521
thorax 1.149082 1.959221 2.114585
lowerneck -19.362640 -7.252586 -16.264931
upperneck 24.405922 -9.504011 15.302760
head 12.563869 -3.974069 6.941748
rclavicle 0.000000 -0.000000
rhumerus -44.439671 9.146522 -97.857315
rradius 34.973839
rwrist -14.220140
rhand -28.728922 -34.060619
rfingers 7.837522
rthumb 0.475780 -67.037849
lclavicle 0.000000 -0.000000
lhumerus -54.999451 -5.460180 99.357391
lradius 22.798712
lwrist -3.131249
lhand -5.511506 -23.426590
lfingers 7.837522
lthumb 22.861740 8.371066
rfemur 17.145920 0.930543 26.518692
rtibia 22.240570
rfoot 13.086150 6.584787
rtoes -17.822641
lfemur -45.458603 1.690568 -23.232660
ltibia 38.591301
lfoot -1.900844 8.648387
ltoes 2.437809
426
root 10.266000 16.903601 24.190599 7.860530 -0.365383 -2.140790
lowerback -8.679892 2.989668 -0.594308
upperback -2.612962 3.989007 1.472845
thorax 2.023516 1.994047 2.219283
lowerneck -20.893732 -7.441995 -16.216311
upperneck 24.454872 -9.522381 15.106190
head 12.876270 -3.942906 6.841274
rclavicle -0.000000 -0.000000
rhumerus -43.687160 9.105427 -97.673294
rradius 34.330120
rwrist -14.370950
rhand -29.327982 -31.845110
rfingers 7.837522
rthumb -0.102825 -64.822891
lclavicle -0.000000 -0.000000
lhumerus -52.893059 -4.973441 98.928833
lradius 22.385221
lwrist -3.675760
lhand -6.242621 -23.641531
lfingers 7.837522
lthumb 22.159170 8.231630
rfemur 15.255460 0.509227 25.406481
rtibia 26.392962
rfoot 14.112230 6.743474
rtoes -16.242380
lfemur -44.604561 1.977239 -24.017290
ltibia 38.427181
lfoot -2.491665 8.548695
ltoes 3.030489
427
root 10.296200 16.934401 24.338400 7.886500 -0.700720 -1.747470
lowerback -8.668869 2.945261 -0.959551
upperback -2.542804 3.959912 1.387727
thorax 2.073797 1.978207 2.334618
lowerneck -21.015499 -7.387369 -16.285170
upperneck 24.244989 -9.389798 15.135011
head 12.802680 -3.881174 6.877761
rclavicle -0.000000 0.000000
rhumerus -44.036194 9.359054 -97.844452
rradius 34.100220
rwrist -14.461591
rhand -28.915260 -32.715870
rfingers 7.837522
rthumb 0.295822 -65.693428
lclavicle -0.000000 0.000000
lhumerus -51.835079 -4.224770 98.419868
lradius 21.965570
lwrist -4.456837
lhand -7.865550 -24.540451
lfingers 7.837522
lthumb 20.598711 7.490055
rfemur 13.347950 0.261014 24.494579
rtibia 30.333160
rfoot 14.987391 7.257493
rtoes -16.535200
lfemur -43.847980 2.269135 -24.658041
ltibia 38.292542
lfoot -3.117499 8.433216
ltoes 5.453800
428
root 10.319300 16.964899 24.477600 7.970150 -0.962708 -1.609890
lowerback -8.421678 2.924438 -1.045877
upperback -2.864037 3.941454 1.310364
thorax 1.606033 1.976205 2.276846
lowerneck -20.722460 -7.217683 -15.938011
upperneck 24.395142 -9.192876 14.702271
head 12.726230 -3.822522 6.689034
rclavicle 0.000000 -0.000000
rhumerus -44.933571 9.621601 -98.295448
rradius 33.759880
rwrist -14.677300
rhand -28.880390 -34.088341
rfingers 7.837522
rthumb 0.329513 -67.065788
lclavicle 0.000000 -0.000000
lhumerus -51.477577 -3.846216 98.010880
lradius 21.637001
lwrist -5.050078
lhand -8.838291 -25.253580
lfingers 7.837522
lthumb 19.662830 6.864738
rfemur 11.411510 0.179434 24.003540
rtibia 34.065792
rfoot 14.778501 8.897505
rtoes -20.319309
lfemur -43.216911 2.596715 -24.957241
ltibia 38.132710
lfoot -3.748624 8.318168
ltoes 5.779972
